<svg width="28" height="28" viewBox="0 0 28 28" fill="none" xmlns="http://www.w3.org/2000/svg">
<path fill-rule="evenodd" clip-rule="evenodd" d="M10.6786 24.6878L6.39293 21.6267C5.21986 20.7887 4.63333 20.3698 4.31666 19.7544C4 19.1391 4 18.4184 4 16.9767V11.4295C4 10.9705 4 10.5845 4.01023 10.2517L12.5714 16.3668V25.9621C12.0619 25.6758 11.4671 25.2511 10.6786 24.6878ZM15.4286 25.9621C15.9381 25.6758 16.5329 25.2511 17.3214 24.6878L21.6071 21.6267C22.7801 20.7887 23.3667 20.3698 23.6833 19.7544C24 19.1391 24 18.4184 24 16.9767V11.4295C24 10.9705 24 10.5845 23.9897 10.2517L15.4286 16.3668V25.9621ZM22.7537 7.62353L14 13.8761L5.24634 7.62353C5.54817 7.38301 5.92361 7.11484 6.39293 6.77963L10.6786 3.7184C12.2824 2.5728 13.0844 2 14 2C14.9156 2 15.7176 2.5728 17.3214 3.7184L21.6071 6.77963C22.0764 7.11484 22.4519 7.38301 22.7537 7.62353Z" fill="white"/>
</svg>
